<svg id="Layer_1" data-name="Layer 1" xmlns="http://www.w3.org/2000/svg" viewBox="0 0 40 40"><path d="M31,5.5H9A3.5,3.5,0,0,0,5.5,9V31A3.5,3.5,0,0,0,9,34.5H31A3.5,3.5,0,0,0,34.5,31V9A3.5,3.5,0,0,0,31,5.5ZM33.5,31A2.5,2.5,0,0,1,31,33.5H9A2.5,2.5,0,0,1,6.5,31V9A2.5,2.5,0,0,1,9,6.5H31A2.5,2.5,0,0,1,33.5,9Z"/><path d="M28,23.5H26.45a2.5,2.5,0,0,0-4.9,0H12a.5.5,0,0,0,0,1h9.55a2.5,2.5,0,0,0,4.9,0H28a.5.5,0,0,0,0-1Zm-4,2A1.5,1.5,0,1,1,25.5,24,1.5,1.5,0,0,1,24,25.5Z"/><path d="M28,15.5H18.45a2.5,2.5,0,0,0-4.9,0H12a.5.5,0,0,0,0,1h1.55a2.5,2.5,0,0,0,4.9,0H28a.5.5,0,0,0,0-1Zm-12,2A1.5,1.5,0,1,1,17.5,16,1.5,1.5,0,0,1,16,17.5Z"/></svg>