<svg id="Layer_1" data-name="Layer 1" xmlns="http://www.w3.org/2000/svg" viewBox="0 0 40 40"><path d="M33.35,12.65h0l-8-8h0l-.14-.15H10A3.5,3.5,0,0,0,6.5,8V32A3.5,3.5,0,0,0,10,35.5H30A3.5,3.5,0,0,0,33.5,32V12.79ZM25.5,6.21l6.29,6.29H28A2.5,2.5,0,0,1,25.5,10ZM30,34.5H10A2.5,2.5,0,0,1,7.5,32V8A2.5,2.5,0,0,1,10,5.5H24.5V10A3.5,3.5,0,0,0,28,13.5h4.5V32A2.5,2.5,0,0,1,30,34.5Z"/><path d="M27,21.5H13a.5.5,0,0,0,0,1H27a.5.5,0,0,0,0-1Z"/><path d="M27,18.5H13a.5.5,0,0,0,0,1H27a.5.5,0,0,0,0-1Z"/><path d="M27,24.5H13a.5.5,0,0,0,0,1H27a.5.5,0,0,0,0-1Z"/><path d="M20,27.5H13a.5.5,0,0,0,0,1h7a.5.5,0,0,0,0-1Z"/></svg>