<svg id="Layer_1" data-name="Layer 1" xmlns="http://www.w3.org/2000/svg" viewBox="0 0 40 40"><path d="M31,5.5H9A3.5,3.5,0,0,0,5.5,9V31A3.5,3.5,0,0,0,9,34.5H31A3.5,3.5,0,0,0,34.5,31V9A3.5,3.5,0,0,0,31,5.5ZM9,6.5H19.5v13H6.5V9A2.5,2.5,0,0,1,9,6.5ZM6.5,31V20.5h13v13H9A2.5,2.5,0,0,1,6.5,31Zm27,0A2.5,2.5,0,0,1,31,33.5H20.5V6.5H31A2.5,2.5,0,0,1,33.5,9Z"/><path d="M30,17.5H24a.5.5,0,0,0,0,1h6a.5.5,0,0,0,0-1Z"/><path d="M30,21.5H24a.5.5,0,0,0,0,1h6a.5.5,0,0,0,0-1Z"/><path d="M11,13.5h1.5V15a.5.5,0,0,0,1,0V13.5H15a.5.5,0,0,0,0-1H13.5V11a.5.5,0,0,0-1,0v1.5H11a.5.5,0,0,0,0,1Z"/><path d="M15,26.5H11a.5.5,0,0,0,0,1h4a.5.5,0,0,0,0-1Z"/></svg>