<svg xmlns="http://www.w3.org/2000/svg" viewBox="0 0 64 64">
    <path d="M11,16H41a.5.5,0,0,0,0-1H11a.5.5,0,0,0,0,1Z" />
    <path d="M11,22H41a.5.5,0,0,0,0-1H11a.5.5,0,0,0,0,1Z" />
    <path d="M11,28H41a.5.5,0,0,0,0-1H11a.5.5,0,0,0,0,1Z" />
    <path d="M31,33H11a.5.5,0,0,0,0,1H31a.5.5,0,0,0,0-1Z" />
    <path
        d="M48.5,32.53V9A4.51,4.51,0,0,0,44,4.5H8A4.51,4.51,0,0,0,3.5,9V57A4.51,4.51,0,0,0,8,61.5H48a14.49,14.49,0,0,0,.5-29ZM8,60.5A3.5,3.5,0,0,1,4.5,57V9A3.5,3.5,0,0,1,8,5.5H44A3.5,3.5,0,0,1,47.5,9V32.53a14.48,14.48,0,0,0-4.75,28Zm40,0A13.5,13.5,0,1,1,61.5,47,13.52,13.52,0,0,1,48,60.5Z" />
    <path fill="currentColor"
        d="M53,53.5H43A2.5,2.5,0,0,1,40.5,51V44a2.51,2.51,0,0,1,1.3-2.2l6-3.25a.51.51,0,0,1,.48,0l6,3.25A2.51,2.51,0,0,1,55.5,44v7A2.5,2.5,0,0,1,53,53.5ZM48,39.57l-5.72,3.12A1.5,1.5,0,0,0,41.5,44v7A1.5,1.5,0,0,0,43,52.5H53A1.5,1.5,0,0,0,54.5,51V44a1.5,1.5,0,0,0-.78-1.32Z" />
    <path fill="currentColor"
        d="M50,50.5H46a.5.5,0,0,1-.5-.5V46a.5.5,0,0,1,.5-.5h4a.5.5,0,0,1,.5.5v4A.5.5,0,0,1,50,50.5Zm-3.5-1h3v-3h-3Z" />
</svg>