<svg xmlns="http://www.w3.org/2000/svg" viewBox="0 0 64 65">
    <path
        d="M25,11.5A4.5,4.5,0,1,0,29.5,16,4.51,4.51,0,0,0,25,11.5Zm0,8A3.5,3.5,0,1,1,28.5,16,3.5,3.5,0,0,1,25,19.5Z" />
    <path
        d="M37,7.5a18.32,18.32,0,0,0-6.15,1.05A16.49,16.49,0,1,0,12.5,35.16V58.38a1.49,1.49,0,0,0,.83,1.34l5,2.5a1.48,1.48,0,0,0,1.34,0l5-2.5a1.49,1.49,0,0,0,.83-1.34V35.16a16.47,16.47,0,0,0,6.09-25.8,17.52,17.52,0,0,1,21.74,23,.49.49,0,0,0,.28.65.57.57,0,0,0,.18,0,.51.51,0,0,0,.47-.32A18.52,18.52,0,0,0,37,7.5ZM24.5,58.38a.51.51,0,0,1-.28.45l-5,2.5a.49.49,0,0,1-.44,0l-5-2.5a.51.51,0,0,1-.28-.45V35.54a16.24,16.24,0,0,0,11,0ZM19,35.5A15.5,15.5,0,1,1,34.5,20,15.51,15.51,0,0,1,19,35.5Z" />
    <path fill="currentColor"
        d="M53.05,56.36A2.55,2.55,0,0,1,51.8,56L34.48,46a2.44,2.44,0,0,1-1.16-1.52,2.41,2.41,0,0,1,.25-1.89l7-12.13h0A2.5,2.5,0,0,1,44,29.57l17.32,10A2.49,2.49,0,0,1,62.22,43l-7,12.13a2.53,2.53,0,0,1-1.52,1.16A2.43,2.43,0,0,1,53.05,56.36ZM41.43,31l-7,12.13a1.5,1.5,0,0,0,.55,2l17.32,10a1.5,1.5,0,0,0,2.05-.55l7-12.13a1.51,1.51,0,0,0-.55-2l-17.32-10a1.51,1.51,0,0,0-2,.55Z" />
    <path fill="currentColor"
        d="M60.78,45h0l-13.39-.8a.49.49,0,0,1-.38-.22l-7.4-11.2a.5.5,0,0,1,.14-.69.51.51,0,0,1,.7.14l7.25,11L60.81,44a.5.5,0,0,1,.47.53A.49.49,0,0,1,60.78,45Z" />
</svg>