<svg xmlns="http://www.w3.org/2000/svg" viewBox="0 0 64 64">
  
    <path
        d="M32,60.5a28.3,28.3,0,0,1-19.81-8L4.85,59.85a.49.49,0,0,1-.7-.7l7.68-7.72a.51.51,0,0,1,.36-.15h0a.51.51,0,0,1,.35.15,27.44,27.44,0,1,0-4.36-5.68.49.49,0,0,1-.18.68.51.51,0,0,1-.69-.18A28.51,28.51,0,1,1,32,60.5Z" />
    <path
        d="M32,53.5A21.5,21.5,0,1,1,53.5,32,21.52,21.52,0,0,1,32,53.5Zm0-42A20.5,20.5,0,1,0,52.5,32,20.53,20.53,0,0,0,32,11.5Z" />
    <path fill="currentColor"
        d="M31.17,18.5a8.66,8.66,0,0,0-8.67,8.64,2.5,2.5,0,0,0,5,0,3.67,3.67,0,1,1,4.27,3.6,3.64,3.64,0,0,0-3.1,3.55V35.4a2.5,2.5,0,0,0,5,0,8.64,8.64,0,0,0-2.5-16.92Zm1.88,16.06.12.48h0l-.12-.48a.49.49,0,0,0-.38.48v.36a1.5,1.5,0,0,1-3,0V34.29a2.63,2.63,0,0,1,2.26-2.56,4.65,4.65,0,1,0-5.43-4.59,1.5,1.5,0,0,1-3,0,7.67,7.67,0,1,1,9.55,7.42Z" />
    <path fill="currentColor"
        d="M31.17,39.74a2.42,2.42,0,1,0,2.56,2.42A2.49,2.49,0,0,0,31.17,39.74Zm0,3.84a1.43,1.43,0,1,1,1.56-1.42A1.5,1.5,0,0,1,31.17,43.58Z" />
</svg>