<svg id="Layer_1" data-name="Layer 1" xmlns="http://www.w3.org/2000/svg" viewBox="0 0 64 64">

    <path
        d="M59.5,17.94a.6.6,0,0,0-.26-.38l-27-15a.51.51,0,0,0-.48,0l-27,15A.57.57,0,0,0,4.5,18v8a.5.5,0,0,0,.5.5h6.5V41a.5.5,0,0,0,1,0V26.5H15a.5.5,0,0,0,.5-.5V22.79L32,13.57l16.5,9.22V26a.5.5,0,0,0,.5.5h2.5V36a.5.5,0,0,0,1,0V26.5H59a.5.5,0,0,0,.5-.5C59.49,25.92,59.5,18,59.5,17.94Zm-10,7.56c-.07-.34.21-3.27-.23-3.41,0,0-17-9.5-17-9.53a.51.51,0,0,0-.48,0l-17,9.5c-.56.13-.13,3.09-.26,3.44h-9V18.29L32,3.57,58.5,18.29V25.5Z" />
    <path
        d="M49.5,10a.5.5,0,0,0,.5-.5V6h6v7.5a.5.5,0,0,0,1,0v-8a.5.5,0,0,0-.5-.5h-7a.5.5,0,0,0-.5.5v4A.5.5,0,0,0,49.5,10Z" />
    <path fill="currentColor"
        d="M61.08,36.59a4.68,4.68,0,0,0-6.29-1.52l-12,7a.5.5,0,0,0,.5.86l12-7a3.69,3.69,0,0,1,5.44,4A3.64,3.64,0,0,1,59,42.28L39.36,54l-15.66.44a10.52,10.52,0,0,0-4.4,1.1l-3,1.51h0L8.37,44.36l8.93-5.69a7.57,7.57,0,0,1,4-1.17H37a3.5,3.5,0,0,1,0,7H26.5a.5.5,0,0,0,0,1H37a4.5,4.5,0,0,0,0-9H21.33a8.45,8.45,0,0,0-4.56,1.33L7.84,43.51,6.42,41.24a.49.49,0,0,0-.66-.18l-4.5,2.5a.5.5,0,1,0,.48.88l4.09-2.27,11,17.7-3.12,2.22a.5.5,0,0,0-.12.7A.49.49,0,0,0,14,63a.52.52,0,0,0,.29-.09l3.5-2.5a.49.49,0,0,0,.13-.67l-1.13-1.83,2.95-1.47a9.53,9.53,0,0,1,4-1L39.51,55a.55.55,0,0,0,.25-.07L59.54,43.14A4.62,4.62,0,0,0,61.7,40.2,4.68,4.68,0,0,0,61.08,36.59Z" />
</svg>