<svg xmlns="http://www.w3.org/2000/svg" viewBox="0 0 64 64">
    <path
        d="M60.29,23.6,33.37,4a2.34,2.34,0,0,0-2.74,0L3.71,23.6a.49.49,0,0,0-.21.4v7a.5.5,0,0,0,.5.5H7.5l0,26.71a2.3,2.3,0,0,0,.68,1.64,2.26,2.26,0,0,0,1.63.68H54.22a2.3,2.3,0,0,0,1.64-.68,2.33,2.33,0,0,0,.67-1.64V31.5H60a.5.5,0,0,0,.5-.5V24A.49.49,0,0,0,60.29,23.6Zm-.79,6.9H50a.5.5,0,0,0,0,1h5.53V58.21a1.32,1.32,0,0,1-.39.94,1.26,1.26,0,0,1-.92.38H9.78a1.3,1.3,0,0,1-.93-.38,1.35,1.35,0,0,1-.38-.94l0-26.71H14a.5.5,0,0,0,0-1H4.5V24.25L31.22,4.76a1.32,1.32,0,0,1,1.56,0L59.5,24.25Z" />
    <path fill="currentColor"
        d="M32,50.5A12.5,12.5,0,1,1,44.5,38,12.52,12.52,0,0,1,32,50.5Zm0-24A11.5,11.5,0,1,0,43.5,38,11.51,11.51,0,0,0,32,26.5Z" />
    <path fill="currentColor"
        d="M32,46.5A8.51,8.51,0,0,1,23.5,38a.5.5,0,0,1,1,0,7.5,7.5,0,0,0,15,0,.5.5,0,0,1,1,0A8.51,8.51,0,0,1,32,46.5Z" />
    <path fill="currentColor" d="M29,34.5H26a.5.5,0,0,1,0-1h3a.5.5,0,0,1,0,1Z" />
    <path fill="currentColor" d="M38,34.5H35a.5.5,0,0,1,0-1h3a.5.5,0,0,1,0,1Z" />
</svg>