<svg xmlns="http://www.w3.org/2000/svg" viewBox="0 0 64 64">
   
    <path
        d="M17.54,38.39a9.86,9.86,0,0,0-5.46.7,4.15,4.15,0,0,1-.79.28c-1.44.28-1.88-.56-2.47-2-.08-.2-.17-.4-.26-.59a6.7,6.7,0,0,0-3-2.93L4,21.92a1.32,1.32,0,0,1,1-1.4,1.19,1.19,0,0,1,.46,0,1.57,1.57,0,0,1,.42.18,1.26,1.26,0,0,1,.32.33,1.4,1.4,0,0,1,.16.43l1.95,12,1.77,2.11a.49.49,0,0,0,.38.18.51.51,0,0,0,.39-.83L9.29,33,7.38,21.31a2.18,2.18,0,0,0-.11-.44l1.17-.23a1.23,1.23,0,0,1,.54,0,1.26,1.26,0,0,1,.51.21,1.37,1.37,0,0,1,.38.38,1.6,1.6,0,0,1,.2.51c.25,1.41.68,3.93,1.08,6.24.29,1.69.57,3.27.73,4.21l0,.12,1.48,1.89a.49.49,0,0,0,.39.19.51.51,0,0,0,.31-.11.49.49,0,0,0,.08-.7l-1.31-1.69c-.17-.95-.43-2.46-.71-4.08-.4-2.31-.84-4.84-1.09-6.24,0,0,0,0,0-.05l.56-.11a1.46,1.46,0,0,1,.55,0,1.62,1.62,0,0,1,.51.21A1.56,1.56,0,0,1,13,22a1.39,1.39,0,0,1,.2.51c.24,1.38.46,2.71.66,4,.26,1.55.49,3,.75,4.37L16.12,33a.5.5,0,0,0,.69.12.5.5,0,0,0,.12-.7l-1.32-1.85c-.24-1.32-.47-2.74-.72-4.24-.13-.82-.27-1.67-.42-2.54l.63-.12a1.23,1.23,0,0,1,.54,0,1.27,1.27,0,0,1,.51.2,1.56,1.56,0,0,1,.38.39,1.39,1.39,0,0,1,.2.51c.54,3.06,1.37,7.37,1.37,7.37l1-.18s-.82-4.31-1.37-7.36a2.31,2.31,0,0,0-.34-.88,2.38,2.38,0,0,0-.66-.68,2.72,2.72,0,0,0-.88-.36,2.42,2.42,0,0,0-.93,0l-.6.12c0-.16-.05-.31-.08-.47a2.31,2.31,0,0,0-.34-.88,2.51,2.51,0,0,0-.66-.68,2.34,2.34,0,0,0-.88-.36,2.29,2.29,0,0,0-.94,0l-.78.15A2.21,2.21,0,0,0,10,20a2.4,2.4,0,0,0-1.8-.36L6.61,20l-.12-.1a2.23,2.23,0,0,0-.79-.34,2.43,2.43,0,0,0-.85,0A2.31,2.31,0,0,0,3,22L4.51,33.51a1.88,1.88,0,0,0-.41,0,1.86,1.86,0,0,0-1.54,1.34,1.86,1.86,0,0,0,0,1.07A44.33,44.33,0,0,0,5.15,42,10.45,10.45,0,0,0,7.3,45.11c1.62,1.48,3.81,1.91,5.91,2.33l.87.18c2.87.61,4.64,1.65,5.4,3.18v6.84a.5.5,0,0,0,.5.5.5.5,0,0,0,.5-.5v-7l-.05-.21c-.87-1.89-2.88-3.15-6.15-3.84l-.87-.18c-2-.39-4-.8-5.42-2.07a9.53,9.53,0,0,1-1.94-2.85,45.69,45.69,0,0,1-2.51-5.95.91.91,0,0,1,0-.49.85.85,0,0,1,.7-.61.84.84,0,0,1,.49.09,6,6,0,0,1,2.94,2.66l.24.56c.53,1.27,1.27,3,3.6,2.55a4.46,4.46,0,0,0,1-.35,8.82,8.82,0,0,1,9.35,1.48.5.5,0,1,0,.66-.74A9.83,9.83,0,0,0,17.54,38.39Z" />
    <path
        d="M27.27,38.6c-2.2-3.49-5.38-4.21-8.2-4.84l-.92-.21a.5.5,0,1,0-.23,1l.93.22c2.75.61,5.6,1.25,7.58,4.39a14.34,14.34,0,0,1,2.07,6V58a.5.5,0,0,0,1,0V45.07A15.24,15.24,0,0,0,27.27,38.6Z" />
    <path
        d="M61.44,34.84A1.86,1.86,0,0,0,59.9,33.5a1.77,1.77,0,0,0-.4,0L61,22a2.25,2.25,0,0,0-.45-1.6,2.29,2.29,0,0,0-1.39-.88,2.26,2.26,0,0,0-.86,0,2.23,2.23,0,0,0-.79.34l-.12.1-1.62-.32a2.29,2.29,0,0,0-.94,0A2.23,2.23,0,0,0,54,20a2.21,2.21,0,0,0-.58.56l-.78-.15a2.29,2.29,0,0,0-.94,0,2.34,2.34,0,0,0-.88.36,2.51,2.51,0,0,0-.66.68,2.31,2.31,0,0,0-.34.88c0,.16-.06.31-.08.47l-.59-.12a2.48,2.48,0,0,0-.94,0,2.54,2.54,0,0,0-.88.37,2.34,2.34,0,0,0-.66.67,2.31,2.31,0,0,0-.34.88c-.55,3-1.37,7.36-1.37,7.36l1,.18s.83-4.31,1.37-7.37a1.39,1.39,0,0,1,.2-.51,1.56,1.56,0,0,1,.38-.39,1.48,1.48,0,0,1,1.06-.2l.62.12c-.15.87-.29,1.72-.42,2.54-.24,1.5-.48,2.92-.72,4.24l-1.32,1.85a.5.5,0,0,0,.41.79.48.48,0,0,0,.4-.21l1.39-1.94.08-.2c.26-1.36.49-2.82.75-4.37.2-1.27.42-2.6.66-4A1.39,1.39,0,0,1,51,22a1.56,1.56,0,0,1,.38-.39,1.62,1.62,0,0,1,.51-.21,1.46,1.46,0,0,1,.55,0l.56.11s0,0,0,.05c-.25,1.37-.67,3.83-1.06,6.11-.29,1.66-.56,3.24-.74,4.21l-1.31,1.69a.5.5,0,0,0,.08.7.51.51,0,0,0,.31.11.49.49,0,0,0,.39-.19l1.48-1.89,0-.12c.17-1,.45-2.6.75-4.34.39-2.28.82-4.73,1.06-6.11a1.46,1.46,0,0,1,.2-.5,1.29,1.29,0,0,1,.38-.39,1.26,1.26,0,0,1,.51-.21,1.28,1.28,0,0,1,.55,0l1.16.23a2.26,2.26,0,0,0-.11.43L54.71,33,53.12,34.9a.51.51,0,0,0,.05.71.52.52,0,0,0,.33.12.49.49,0,0,0,.38-.18l1.78-2.11,1.94-12a1.4,1.4,0,0,1,.16-.43,1.12,1.12,0,0,1,.32-.33,1.57,1.57,0,0,1,.42-.18,1.19,1.19,0,0,1,.46,0,1.32,1.32,0,0,1,1,1.39l-1.57,12a6.78,6.78,0,0,0-3,2.93c-.08.19-.17.39-.25.59-.59,1.4-1,2.24-2.46,2a4,4,0,0,1-.82-.29,9.78,9.78,0,0,0-10.4,1.66.5.5,0,0,0,.66.74A8.83,8.83,0,0,1,51.49,40a4.33,4.33,0,0,0,1,.36c2.3.46,3-1.28,3.58-2.56l.24-.55a6,6,0,0,1,2.95-2.67.89.89,0,0,1,.48-.08.85.85,0,0,1,.7.61.91.91,0,0,1,0,.49,46.51,46.51,0,0,1-2.52,6A9.53,9.53,0,0,1,56,44.37c-1.42,1.29-3.46,1.7-5.44,2.09l-.87.18c-3.27.69-5.28,2-6.15,3.84l0,7.16a.5.5,0,0,0,.5.5.5.5,0,0,0,.5-.5V50.8c.76-1.53,2.53-2.57,5.4-3.18l.87-.18c2.11-.42,4.29-.85,5.93-2.35A10.39,10.39,0,0,0,58.84,42a45.09,45.09,0,0,0,2.56-6.09A1.86,1.86,0,0,0,61.44,34.84Z" />
    <path
        d="M46.08,34.52a.5.5,0,1,0-.23-1l-.92.21c-2.81.63-6,1.35-8.2,4.84a15.27,15.27,0,0,0-2.23,6.52V58a.5.5,0,0,0,1,0V45.17a14.32,14.32,0,0,1,2.07-6c2-3.14,4.83-3.78,7.58-4.39Z" />
    <path fill="currentColor"
        d="M39,26.94H25a4.51,4.51,0,0,1-4.5-4.5V12.81a4.52,4.52,0,0,1,2.34-4L31.75,4a.51.51,0,0,1,.48,0l8.91,4.86a4.5,4.5,0,0,1,2.35,4v9.63A4.51,4.51,0,0,1,39,26.94ZM32,5,23.31,9.74a3.5,3.5,0,0,0-1.82,3.07v9.63a3.5,3.5,0,0,0,3.5,3.5H39a3.5,3.5,0,0,0,3.5-3.5V12.81a3.5,3.5,0,0,0-1.83-3.07Z" />
    <path fill="currentColor"
        d="M35,21.94H29a.5.5,0,0,1-.5-.5v-6a.5.5,0,0,1,.5-.5h6a.5.5,0,0,1,.5.5v6A.5.5,0,0,1,35,21.94Zm-5.5-1h5v-5h-5Z" />
</svg>