<svg id="Layer_1" data-name="Layer 1" xmlns="http://www.w3.org/2000/svg" viewBox="0 0 36 36"><path d="M23.46,26.8h0c-1.46,0-5.33-.55-9.7-4.93s-4.91-8.24-4.93-9.7a2.3,2.3,0,0,1,.7-1.65l.9-.9a2.78,2.78,0,0,1,2.19-.79,2.73,2.73,0,0,1,2,1.16l1.07,1.53a2.73,2.73,0,0,1-.1,3.24,1.15,1.15,0,0,0,0,1.45c.71.86,1.33,1.56,1.8,2s1.14,1.06,2,1.77a1.19,1.19,0,0,0,1.51,0A2.77,2.77,0,0,1,24,19.68l1.63.89a2.75,2.75,0,0,1,.63,4.36l-1.16,1.16A2.29,2.29,0,0,1,23.46,26.8ZM12.35,10.32a1.29,1.29,0,0,0-.89.36l-.9.9a.81.81,0,0,0-.26.57c0,1.27.5,4.67,4.49,8.66s7.39,4.47,8.66,4.49A.88.88,0,0,0,24,25l1.16-1.16a1.23,1.23,0,0,0,.35-1.06,1.25,1.25,0,0,0-.64-.92L23.26,21a1.26,1.26,0,0,0-1.38.12,2.74,2.74,0,0,1-3.48.05c-.89-.74-1.6-1.37-2.1-1.87s-1.15-1.23-1.89-2.13a2.66,2.66,0,0,1,0-3.35,1.2,1.2,0,0,0,0-1.44l-1.07-1.53a1.25,1.25,0,0,0-.91-.53Z"/><path d="M18,36A18,18,0,1,1,36,18,18,18,0,0,1,18,36ZM18,1A17,17,0,1,0,35,18,17,17,0,0,0,18,1Z"/></svg>