<svg width="198" height="21" viewBox="0 0 198 21" fill="none" xmlns="http://www.w3.org/2000/svg">
<g clip-path="url(#clip0_31_845)">
<path d="M1.1011 3.31024L3.80587 3.31024L4.41306 0.271484L8.66341 0.271484L8.05622 3.31024L10.4298 3.31024L11.037 0.271484L15.2873 0.271484L14.6801 3.31024L16.8329 3.31024L16.7225 6.62032H14.073L13.521 9.49629H15.6737L15.5633 12.8064H12.8034L12.1962 15.8451H8.00102L8.60822 12.8064H6.23464L5.62745 15.8451L1.3771 15.8451L1.98429 12.8064H-0.113281L-0.00288256 9.49629H2.70189L3.25388 6.62032L1.1011 6.62032L1.1011 3.31024ZM6.84184 9.49629H9.21541L9.7674 6.62032L7.44903 6.62032L6.84184 9.49629Z" fill="#D90002"/>
<path d="M40.793 0.271729L42.2834 6.51204L46.4233 0.271729L50.9497 0.271729L40.6826 15.7911H36.1562L39.3026 10.9617L36.2114 0.271729L40.793 0.271729Z" fill="white"/>
<path d="M52.3826 0.271729L58.6202 0.271729C62.1529 0.271729 63.7537 1.46553 63.7537 3.52754C63.7805 4.41768 63.5235 5.29377 63.0187 6.03323C62.5139 6.77269 61.7866 7.33853 60.9385 7.65157C61.5895 7.79203 62.1709 8.14999 62.5835 8.66449C62.9962 9.17899 63.2147 9.81821 63.2017 10.4733C63.2108 10.7097 63.1923 10.9464 63.1465 11.1787C62.5945 13.8919 60.497 15.7911 55.9154 15.7911L49.3467 15.7911L52.3826 0.271729ZM58.7306 10.5818C58.7306 9.82212 58.1234 9.49654 56.8538 9.49654H54.977L54.3698 12.481L56.2466 12.481C57.6818 12.481 58.3994 12.1012 58.6754 10.9617C58.7247 10.8413 58.7437 10.7109 58.7306 10.5818ZM59.393 4.55855C59.393 3.85312 58.841 3.63607 57.737 3.63607L56.1362 3.63607L55.5842 6.29499H57.185C58.5098 6.29499 59.117 5.91514 59.3378 4.9384C59.383 4.81698 59.4018 4.68757 59.393 4.55855Z" fill="white"/>
<path d="M77.5529 0.271729L79.7056 15.7911H75.0137L74.7377 13.2407H69.3834L68.1138 15.7911H63.4219L71.8122 0.271729L77.5529 0.271729ZM71.1498 9.71359H74.4065L73.8545 4.23297L71.1498 9.71359Z" fill="white"/>
<path d="M88.7046 10.7984L87.159 10.7984L86.1655 15.7907H81.7495L84.8407 0.271271L90.8022 0.271271C94.2798 0.271271 96.5429 1.5736 96.5429 4.28678C96.531 4.68655 96.4942 5.08524 96.4325 5.48057C95.7149 9.11623 92.679 10.7984 88.7046 10.7984ZM92.0166 4.9922C92.0166 4.01546 91.299 3.63561 90.0294 3.63561L88.5942 3.63561L87.8214 7.48833H89.2566C90.747 7.48833 91.6854 6.94569 91.9614 5.53484C91.9614 5.37205 92.0166 5.15499 92.0166 4.9922Z" fill="white"/>
<path d="M118.791 3.79886L114.375 3.79886L115.093 0.271729L128.396 0.271729L127.678 3.79886L123.262 3.79886L120.833 15.8454L116.417 15.8454L118.791 3.79886Z" fill="white"/>
<path d="M134.245 10.7984L132.699 10.7984L131.706 15.7907H127.29L130.381 0.271271L136.397 0.271271C139.875 0.271271 142.138 1.5736 142.138 4.28678C142.126 4.68656 142.089 5.08524 142.028 5.48058C141.255 9.11624 138.219 10.7984 134.245 10.7984ZM137.557 4.9922C137.557 4.01546 136.839 3.63561 135.569 3.63561L134.134 3.63561L133.361 7.48833H134.797C136.287 7.48833 137.225 6.94569 137.501 5.53484C137.547 5.35765 137.566 5.17477 137.557 4.9922Z" fill="white"/>
<path d="M142.855 10.093C142.855 4.23256 147.106 0 152.46 0C156.6 0 158.863 2.3876 158.863 6.02325C158.863 11.8295 154.558 16.062 149.259 16.062C145.174 16.062 142.855 13.7287 142.855 10.093ZM154.337 6.56589C154.337 4.66667 153.399 3.52713 151.798 3.52713C149.535 3.52713 147.437 5.91473 147.437 9.49612C147.437 11.3411 148.375 12.4806 149.976 12.4806C152.184 12.5349 154.337 10.2015 154.337 6.56589Z" fill="white"/>
<path d="M162.728 0.271729L167.033 0.271729L165.322 8.73685L172.167 0.271729L176.528 0.271729L173.437 15.7911H169.131L170.842 7.32599L163.997 15.7911H159.637L162.728 0.271729Z" fill="white"/>
<path d="M182.268 3.7984L177.852 3.7984L178.57 0.271271L191.873 0.271271L191.155 3.7984L186.739 3.7984L184.311 15.8449L179.895 15.8449L182.268 3.7984Z" fill="white"/>
<path d="M107.194 0C110.561 0 113.873 1.73643 113.653 5.96899L109.733 5.96899C109.513 4.17829 108.188 3.68992 106.477 3.68992C103.717 3.68992 102.006 5.91473 101.509 8.41085C101.067 10.6899 102.502 12.3178 104.821 12.3178C105.678 12.3537 106.526 12.1347 107.255 11.6894C107.984 11.2442 108.559 10.5933 108.905 9.8217H112.99C111.5 14.3256 107.526 16.062 104.103 16.062C99.9632 16.062 96.32 13.2946 97.3136 7.92248C98.3072 2.55039 102.834 0 107.194 0Z" fill="white"/>
<path d="M29.3701 0C32.7372 0 36.0492 1.73643 35.8284 5.96899L31.9093 5.96899C31.6885 4.1783 30.3637 3.68992 28.6525 3.68992C25.8925 3.68992 24.1813 5.91473 23.6846 8.41085C23.243 10.6899 24.6781 12.3178 26.9965 12.3178C27.8537 12.3537 28.7021 12.1347 29.4307 11.6894C30.1594 11.2442 30.7346 10.5933 31.0813 9.82171H35.166C33.6756 14.3256 29.7013 16.062 26.2789 16.062C22.139 16.062 18.4958 13.2946 19.4894 7.92248C20.5934 2.49612 25.0645 0 29.3701 0Z" fill="white"/>
<path d="M194.525 16.0605C195.988 16.0605 197.174 14.8701 197.174 13.4016C197.174 11.9331 195.988 10.7427 194.525 10.7427C193.061 10.7427 191.875 11.9331 191.875 13.4016C191.875 14.8701 193.061 16.0605 194.525 16.0605Z" fill="#D90002"/>
</g>
<defs>
<clipPath id="clip0_31_845">
<rect width="198" height="21" fill="white"/>
</clipPath>
</defs>
</svg>
