<svg width="85" height="21" viewBox="0 0 85 21" fill="none" xmlns="http://www.w3.org/2000/svg">
<g clip-path="url(#clip0_31_20)">
<path fill-rule="evenodd" clip-rule="evenodd" d="M45.6991 5.08575C45.9035 5.29712 47.7435 10.3326 47.9359 10.9543C48.1275 11.6204 48.3982 12.2593 48.7417 12.8566C49.379 13.0058 49.4392 12.3469 49.6316 11.8247C50.6779 9.00227 52.2653 4.88682 53.059 2.11417C53.6122 0.771367 53.6603 0.410799 52.6622 0.410799C51.664 0.410799 51.7722 1.0822 51.3754 1.95254C51.0266 3.60618 49.6797 7.09996 49.1866 8.70387C49.1866 8.91524 49.1866 8.91524 48.9341 8.91524C48.1043 6.52803 47.1422 3.60618 46.2042 1.24384C45.9516 0.783801 45.5067 0.684334 45.206 1.71631C44.7009 3.35751 44.0034 5.30956 43.4622 6.90103C43.4622 6.90103 42.8128 8.91524 42.7647 9.01471C42.4208 8.443 42.169 7.81733 42.0191 7.16213C41.2735 5.25982 40.6241 3.20831 39.9867 1.306C39.8304 0.945435 39.8304 0.734067 39.4816 0.5227C39.132 0.38877 38.7541 0.354417 38.3873 0.423232C37.4011 0.584867 38.0385 1.40547 38.2429 2.01471C39.4455 5.35929 40.7804 9.37528 42.1153 12.5582C42.1466 12.6371 42.1974 12.7061 42.2626 12.7582C42.3278 12.8103 42.4052 12.8437 42.4869 12.855C42.5686 12.8664 42.6518 12.8553 42.728 12.8228C42.8042 12.7903 42.8708 12.7377 42.9211 12.6701C43.1135 12.2847 45.5548 5.08575 45.6991 5.08575Z" fill="#221F20"/>
<path fill-rule="evenodd" clip-rule="evenodd" d="M0.193291 0.621992C0.143579 0.829116 0.160465 1.04734 0.241395 1.24366C0.445838 2.114 -0.155464 12.0358 0.000874361 12.4337C0.487658 12.66 1.03343 12.7125 1.55223 12.5829C1.79275 12.3218 1.69655 12.0731 1.69655 11.6628C1.69655 9.90974 1.84086 8.2188 1.84086 6.41595C1.90099 5.74455 1.94909 5.28451 1.94909 4.87421C1.94909 4.46391 1.94909 4.51364 2.0453 4.41418C2.14151 4.31471 3.71692 7.14952 3.87326 7.46036C4.17391 8.06959 4.76318 9.0021 5.16004 9.72324C5.76134 10.8547 6.062 10.0838 6.20631 9.8227C6.55506 9.36267 9.24889 4.47634 9.44131 4.37688C9.6217 4.57581 9.6217 9.46214 9.6217 9.8227C9.6217 12.4959 9.32105 12.757 10.9566 12.6451C11.4617 12.6451 11.5098 12.2348 11.4617 11.7747C11.4617 10.9044 11.4617 9.92217 11.4617 9.05183C11.3294 6.83869 11.2332 4.31471 11.2332 2.114C11.2332 1.8529 11.3294 0.87066 11.3294 0.721459C11.1822 0.549934 10.9827 0.435493 10.7641 0.397059C10.5454 0.358625 10.3206 0.3985 10.1268 0.510092C9.77804 0.721459 9.68183 1.18149 9.42929 1.49233C8.4191 3.34491 7.06016 5.44615 6.1101 7.19926C5.76134 7.82093 5.76134 7.60956 5.46069 7.19926C4.81129 6.21702 3.96947 4.52608 3.38019 3.54384L2.17759 1.49233C2.01042 1.13582 1.79589 0.805206 1.54021 0.510092C1.20348 0.261424 0.542046 0.460358 0.193291 0.621992Z" fill="#221F20"/>
<path fill-rule="evenodd" clip-rule="evenodd" d="M63.6523 6.37889C64.0779 6.01983 64.5828 5.77517 65.1221 5.6667C65.6613 5.55824 66.2182 5.58933 66.743 5.75722C68.3304 6.47836 68.5348 8.90287 67.8373 10.084C67.5403 10.5444 67.1123 10.898 66.6126 11.0962C66.1128 11.2945 65.5659 11.3274 65.0473 11.1906C64.5449 11.0881 64.0693 10.8762 63.6523 10.5689V6.37889ZM63.6523 4.62578C63.5773 3.27165 63.5773 1.9142 63.6523 0.560065C63.6523 0.000562301 63.4598 -0.0989048 62.9548 0.100029C61.7521 0.622232 61.7521 0.410864 61.9205 1.5423C62.0167 2.11424 61.9205 8.74124 61.9205 9.67374C61.9205 11.5139 61.668 11.9366 64.2536 12.7075C64.9898 12.8671 65.7496 12.8712 66.4874 12.7195C67.2252 12.5678 67.9257 12.2635 68.5469 11.8247C71.0844 9.67374 70.3869 3.60625 65.7568 4.06628C65.3532 4.08886 64.9515 4.1387 64.5542 4.21548C64.3979 4.26522 63.8086 4.62578 63.7364 4.62578H63.6523Z" fill="#221F20"/>
<path fill-rule="evenodd" clip-rule="evenodd" d="M28.5848 12.5461C28.7729 11.8977 28.8262 11.2155 28.7411 10.5443C28.6919 9.84065 28.6919 9.13425 28.7411 8.43061C28.8854 8.43061 29.0418 8.69171 29.3424 9.00254C29.6431 9.31338 32.1205 11.9866 32.5173 12.285C32.6558 12.4182 32.8227 12.5158 33.0045 12.5698C33.1863 12.6238 33.3778 12.6327 33.5636 12.5958C33.9123 12.5958 34.4655 12.5958 34.6579 12.3471C34.6579 11.9866 33.9604 11.4146 33.6598 11.1038C33.3591 10.793 32.9743 10.3951 32.6255 9.97235C31.8606 9.27636 31.1452 8.52426 30.4849 7.72191C30.4849 7.61 33.2148 5.23523 33.7199 4.78762C33.9123 4.57626 34.1168 4.52652 34.0687 4.21569C33.4497 4.01828 32.7875 4.01828 32.1686 4.21569C31.928 4.32759 30.2805 5.86933 29.8355 6.27963C29.6912 6.42883 28.8373 7.36134 28.7411 7.3116C28.5968 6.83913 28.7411 0.41107 28.6449 0.0505016C28.5487 -0.310067 26.853 0.261869 26.9012 0.883539C26.9954 1.32033 27.0438 1.76638 27.0455 2.21391V11.1038C27.0455 11.4146 26.9493 12.3471 27.1537 12.4963C27.6216 12.62 28.1099 12.6369 28.5848 12.5461Z" fill="#221F20"/>
<path fill-rule="evenodd" clip-rule="evenodd" d="M15.631 8.33076C16.1842 8.18156 18.0362 8.6416 18.1204 9.15137C18.1684 9.70146 18.1684 10.2549 18.1204 10.805C17.7716 11.265 15.3784 12.1851 14.5847 10.5439C14.4777 10.3108 14.4222 10.0559 14.4222 9.7979C14.4222 9.53986 14.4777 9.28505 14.5847 9.0519C14.7002 8.86234 14.8531 8.70011 15.0334 8.57584C15.2137 8.45157 15.4173 8.36806 15.631 8.33076ZM18.1685 7.70909C17.7012 7.38903 17.1785 7.16528 16.6291 7.05012C15.9445 6.97175 15.2519 7.0223 14.5847 7.19933C14.023 7.36566 13.5277 7.71397 13.1716 8.19301C12.8156 8.67206 12.6177 9.25657 12.6069 9.8606C12.5961 10.4646 12.7731 11.0563 13.1118 11.5486C13.4505 12.0409 13.9331 12.4078 14.4885 12.5954C15.4397 12.9308 16.4716 12.9308 17.4228 12.5954C17.6273 12.496 18.0241 12.2348 18.1685 12.1851C18.3128 12.1354 18.3729 12.5457 18.5653 12.6452C18.7577 12.7446 19.6597 12.6452 19.9122 12.3965C20.1648 12.1478 20.2129 12.1851 20.0565 11.8245C19.8239 11.3488 19.7398 10.8101 19.816 10.2828V6.57766C19.8789 6.05303 19.755 5.52267 19.4673 5.08565C18.5172 3.13361 12.7928 3.90448 13.2498 5.55812C13.7068 7.21176 14.4524 4.98618 16.9779 5.29702C18.3368 5.44622 18.1925 6.78902 18.1925 7.70909H18.1685Z" fill="#221F20"/>
<path fill-rule="evenodd" clip-rule="evenodd" d="M77.0384 7.46112H72.9135C72.9688 6.9506 73.1941 6.47587 73.5509 6.11831C73.9403 5.76524 74.4296 5.55156 74.9459 5.50908C75.2148 5.48611 75.4855 5.51941 75.7417 5.607C75.9979 5.69458 76.2344 5.83466 76.4371 6.01885C76.6412 6.1924 76.8022 6.41382 76.9068 6.66468C77.0114 6.91554 77.0565 7.18859 77.0384 7.46112ZM72.8053 8.79149C73.1059 8.64229 77.6157 8.79149 78.4335 8.79149C79.2512 8.79149 78.8784 6.01885 77.3872 4.88741C76.778 4.41783 76.0527 4.13596 75.2951 4.07435C74.5376 4.01274 73.7786 4.1739 73.1059 4.53922C72.4331 4.90454 71.874 5.45912 71.4931 6.13894C71.1122 6.81876 70.9251 7.59609 70.9533 8.38119C70.9247 9.14372 71.0963 9.90002 71.4499 10.5699C71.8035 11.2397 72.3259 11.7981 72.9616 12.1858C74.2965 13.1183 77.8803 13.0686 78.3252 11.6263C78.8784 9.77373 77.5796 10.8057 77.1226 11.0046C76.7383 11.1675 76.3333 11.2722 75.92 11.3155C73.2623 11.6263 72.6129 9.20179 72.8053 8.79149Z" fill="#221F20"/>
<path fill-rule="evenodd" clip-rule="evenodd" d="M54.7551 7.46008C54.7973 6.92903 55.0308 6.43372 55.4094 6.07222C55.788 5.71071 56.2841 5.50936 56.7995 5.50804C57.8337 5.39613 59.0363 6.32864 58.8319 7.46008H54.7551ZM54.5506 8.70342C54.8032 8.70342 59.4813 8.70342 60.1307 8.70342C60.7801 8.70342 60.6719 8.29312 60.6238 7.78335C60.5886 7.09299 60.3807 6.4239 60.0202 5.84163C59.6598 5.25935 59.1592 4.78386 58.5676 4.46173C57.9759 4.1396 57.3135 3.98187 56.6452 4.004C55.9769 4.02613 55.3256 4.22735 54.7551 4.58796C54.1136 4.97977 53.589 5.54682 53.2389 6.2268C52.8889 6.90677 52.7269 7.67336 52.7708 8.44232C52.7197 9.20139 52.8851 9.95928 53.2463 10.6222C53.6075 11.2852 54.1488 11.8241 54.8032 12.1723C56.4989 13.254 59.8301 12.794 60.1307 11.5631C60.1307 11.2025 60.3712 10.3198 59.8301 10.5311C59.1764 10.9132 58.4648 11.178 57.7255 11.3144C57.3314 11.3689 56.9308 11.3419 56.5469 11.2352C56.1629 11.1285 55.8032 10.9441 55.4887 10.6928C55.0557 10.3322 54.3582 9.25049 54.5506 8.70342Z" fill="#221F20"/>
<path fill-rule="evenodd" clip-rule="evenodd" d="M81.5608 12.5947C81.8614 12.2839 81.8133 12.1347 81.8133 11.6747V10.4313C81.8133 8.79012 81.5127 6.06721 83.3526 5.6569C83.7495 5.55744 83.8457 5.90557 84.3508 5.8061C84.6487 5.52982 84.8724 5.17861 85.0002 4.78657C85.0002 4.00326 83.7976 3.85406 82.7032 4.36383C82.3545 4.52547 82.0659 5.08497 81.8133 5.1347C81.8133 4.67467 81.9095 4.47573 81.6089 4.06543C81.2234 4.10364 80.8503 4.22658 80.5145 4.426C80.0214 4.67467 79.9252 4.67467 80.0214 5.29634C80.1176 5.91801 80.0214 10.1827 80.0214 11.2022C80.0695 12.7564 80.0695 12.7066 81.5608 12.5947Z" fill="#221F20"/>
<path fill-rule="evenodd" clip-rule="evenodd" d="M22.9216 12.546V12.4465C23.0612 11.1837 23.0974 9.91096 23.0299 8.64187C23.0299 7.65963 23.2704 6.06816 24.3167 5.75732C25.1585 5.44649 25.2066 6.26709 25.7598 5.75732C27.0466 4.36478 25.3148 3.80528 24.2686 4.26532C23.2223 4.72535 23.3666 5.08592 23.066 5.18539C23.0418 4.98308 23.0418 4.77846 23.066 4.57615C23.066 4.31505 22.9577 4.31505 22.8615 4.16585C22.4759 4.1626 22.097 4.27022 21.7671 4.47668C21.2741 4.67562 21.1177 4.72535 21.2741 5.34702C21.3799 6.30023 21.412 7.26064 21.3703 8.21913V11.0539C21.4785 12.5957 21.2741 12.7076 22.9216 12.546Z" fill="#221F20"/>
<path fill-rule="evenodd" clip-rule="evenodd" d="M45.3504 14.2002C43.3652 14.4534 41.4131 14.9329 39.5298 15.63C38.9406 15.8911 38.3272 16.0403 37.738 16.3014C36.5354 16.7614 35.4049 17.1717 34.2143 17.6442C33.8175 17.7934 30.9793 18.6637 30.4863 18.7756C28.0811 19.3849 24.4733 20.106 22.1763 19.0243C21.0819 18.4648 20.9737 20.2055 23.4631 20.8272C24.9189 21.0907 26.4127 21.0229 27.8405 20.6282C29.0431 20.3671 30.4863 19.9071 31.6287 19.5465C32.7712 19.1859 34.1181 18.7756 35.3568 18.4151C35.6575 18.3032 35.898 18.2037 36.2467 18.1042L38.0867 17.5323C38.4355 17.4328 38.688 17.2836 38.9887 17.1717L40.8888 16.7117C41.2375 16.6122 41.4901 16.5128 41.7907 16.4009C44.3086 15.8455 46.8768 15.5704 49.4513 15.5803C50.0887 15.5803 51.0388 15.7419 51.6882 15.8414C52.8908 15.9906 52.6262 15.3316 51.8325 14.9089C49.7688 14.0913 47.5339 13.847 45.3504 14.2002Z" fill="#F9CC46"/>
</g>
<defs>
<clipPath id="clip0_31_20">
<rect width="85" height="21" fill="white" transform="translate(0 0.000976562)"/>
</clipPath>
</defs>
</svg>
