<svg id="Layer_1" data-name="Layer 1" xmlns="http://www.w3.org/2000/svg" viewBox="0 0 72 72"><defs><style>.cls-1{fill:#fff;}</style></defs><path class="cls-1" d="M64,30.5A1.5,1.5,0,0,0,65.5,29V24.69a1.5,1.5,0,0,0-1-1.4l-28-10.62a1.49,1.49,0,0,0-1.06,0l-28,10.62a1.5,1.5,0,0,0-1,1.4V29A1.5,1.5,0,0,0,8,30.5h5.5v21H8A1.5,1.5,0,0,0,6.5,53v4A1.5,1.5,0,0,0,8,58.5H64A1.5,1.5,0,0,0,65.5,57V53A1.5,1.5,0,0,0,64,51.5H58.5v-21ZM7.5,29V24.69a.51.51,0,0,1,.32-.47l28-10.62.18,0,.18,0,28,10.62a.51.51,0,0,1,.32.47V29a.5.5,0,0,1-.5.5H8A.5.5,0,0,1,7.5,29Zm38,22.5v-21h7v21Zm-5,0v-21h4v21Zm-8,0v-21h7v21Zm-5,0v-21h4v21Zm-8,0v-21h7v21Zm-5-21h4v21h-4ZM64.5,53v4a.5.5,0,0,1-.5.5H8a.5.5,0,0,1-.5-.5V53a.5.5,0,0,1,.5-.5H64A.5.5,0,0,1,64.5,53Zm-7-1.5h-4v-21h4Z"/></svg>