<svg id="Layer_1" data-name="Layer 1" xmlns="http://www.w3.org/2000/svg" viewBox="0 0 72 72"><defs><style>.cls-1{fill:#fff;}</style></defs><path class="cls-1" d="M49,27.5a44.63,44.63,0,0,0-9.5,1V19c0-3.57-8.5-5.5-16.5-5.5S6.5,15.43,6.5,19V49c0,3.57,8.5,5.5,16.5,5.5a43,43,0,0,0,9.58-1c.76,3.25,8.81,5,16.42,5,8,0,16.5-1.93,16.5-5.5V33C65.5,29.43,57,27.5,49,27.5ZM64.5,43c0,2.13-6.37,4.5-15.5,4.5S33.5,45.13,33.5,43V35C36,37.27,42.63,38.5,49,38.5S62,37.27,64.5,35ZM7.5,31C10,33.27,16.63,34.5,23,34.5a43.62,43.62,0,0,0,9.5-1v9a42.23,42.23,0,0,1-9.5,1c-9.13,0-15.5-2.37-15.5-4.5Zm57,2c0,2.13-6.37,4.5-15.5,4.5S33.5,35.13,33.5,33s6.37-4.5,15.5-4.5S64.5,30.87,64.5,33Zm-31.92-.51a42.87,42.87,0,0,1-9.58,1c-9.13,0-15.5-2.37-15.5-4.5V21C10,23.27,16.63,24.5,23,24.5S36,23.27,38.5,21v7.74C35.3,29.55,33,30.82,32.58,32.49ZM23,14.5c9.13,0,15.5,2.37,15.5,4.5S32.13,23.5,23,23.5,7.5,21.13,7.5,19,13.87,14.5,23,14.5ZM7.5,49V41C10,43.27,16.63,44.5,23,44.5a43.62,43.62,0,0,0,9.5-1v9a42.23,42.23,0,0,1-9.5,1C13.87,53.5,7.5,51.13,7.5,49ZM49,57.5c-9.13,0-15.5-2.37-15.5-4.5V45C36,47.27,42.63,48.5,49,48.5S62,47.27,64.5,45v8C64.5,55.13,58.13,57.5,49,57.5Z"/></svg>