<svg id="Layer_1" data-name="Layer 1" xmlns="http://www.w3.org/2000/svg" viewBox="0 0 40 40"><path d="M36.3,17.6l-2.8-2.1v-6A1.5,1.5,0,0,0,32,8H29.5A1.5,1.5,0,0,0,28,9.5v1.88l-8-6L3.7,17.6a.5.5,0,0,0-.1.7.51.51,0,0,0,.4.2.49.49,0,0,0,.3-.1l2.2-1.65V31A3.5,3.5,0,0,0,10,34.5H30A3.5,3.5,0,0,0,33.5,31V16.75l2.2,1.65a.51.51,0,0,0,.7-.1A.5.5,0,0,0,36.3,17.6ZM29,9.5a.5.5,0,0,1,.5-.5H32a.5.5,0,0,1,.5.5v5.25L29,12.13Zm-13.5,24V26A1.5,1.5,0,0,1,17,24.5h6A1.5,1.5,0,0,1,24.5,26v7.5Zm17-2.5A2.5,2.5,0,0,1,30,33.5H25.5V26A2.5,2.5,0,0,0,23,23.5H17A2.5,2.5,0,0,0,14.5,26v7.5H10A2.5,2.5,0,0,1,7.5,31V16h0L20,6.63,32.5,16h0Z"/></svg>