<svg id="Layer_1" data-name="Layer 1" xmlns="http://www.w3.org/2000/svg" viewBox="0 0 40 40"><path d="M16,18.5A2.5,2.5,0,1,1,18.5,16,2.5,2.5,0,0,1,16,18.5Zm0-4A1.5,1.5,0,1,0,17.5,16,1.5,1.5,0,0,0,16,14.5Z"/><path d="M14,26.5a.47.47,0,0,1-.35-.15.48.48,0,0,1,0-.7l12-12a.49.49,0,1,1,.7.7l-12,12A.47.47,0,0,1,14,26.5Z"/><path d="M24,26.5A2.5,2.5,0,1,1,26.5,24,2.5,2.5,0,0,1,24,26.5Zm0-4A1.5,1.5,0,1,0,25.5,24,1.5,1.5,0,0,0,24,22.5Z"/><path d="M20,36a3.5,3.5,0,0,1-2.59-1.14,2.5,2.5,0,0,0-2.61-.7,3.51,3.51,0,0,1-4.49-2.59,2.52,2.52,0,0,0-1.92-1.92A3.5,3.5,0,0,1,6.11,28a3.46,3.46,0,0,1-.31-2.81,2.52,2.52,0,0,0-.7-2.62,3.51,3.51,0,0,1,0-5.18,2.5,2.5,0,0,0,.7-2.61,3.51,3.51,0,0,1,2.59-4.49,2.52,2.52,0,0,0,1.92-1.92A3.51,3.51,0,0,1,14.8,5.8a2.5,2.5,0,0,0,2.61-.7h0a3.51,3.51,0,0,1,5.18,0,2.52,2.52,0,0,0,2.62.7A3.46,3.46,0,0,1,28,6.11a3.5,3.5,0,0,1,1.67,2.28,2.52,2.52,0,0,0,1.92,1.92A3.51,3.51,0,0,1,34.2,14.8a2.5,2.5,0,0,0,.7,2.61,3.51,3.51,0,0,1,0,5.18,2.52,2.52,0,0,0-.7,2.62A3.46,3.46,0,0,1,33.89,28a3.5,3.5,0,0,1-2.28,1.67,2.52,2.52,0,0,0-1.92,1.92A3.5,3.5,0,0,1,28,33.89a3.46,3.46,0,0,1-2.81.31,2.52,2.52,0,0,0-2.62.7A3.5,3.5,0,0,1,20,36Zm-4.45-3a3.57,3.57,0,0,1,2.6,1.14,2.55,2.55,0,0,0,3.7,0,3.53,3.53,0,0,1,3.66-1,2.51,2.51,0,0,0,3.21-1.86,3.51,3.51,0,0,1,2.67-2.67,2.51,2.51,0,0,0,1.86-3.21,3.51,3.51,0,0,1,1-3.66,2.5,2.5,0,0,0,0-3.7,3.51,3.51,0,0,1-1-3.66,2.51,2.51,0,0,0-1.86-3.21,3.51,3.51,0,0,1-2.67-2.67A2.51,2.51,0,0,0,27.52,7a2.48,2.48,0,0,0-2-.21,3.53,3.53,0,0,1-3.66-1,2.55,2.55,0,0,0-3.7,0h0a3.55,3.55,0,0,1-3.66,1,2.48,2.48,0,0,0-2,.21,2.51,2.51,0,0,0-1.2,1.64,3.51,3.51,0,0,1-2.67,2.67A2.51,2.51,0,0,0,7,12.48a2.48,2.48,0,0,0-.21,2,3.53,3.53,0,0,1-1,3.66,2.5,2.5,0,0,0,0,3.7,3.53,3.53,0,0,1,1,3.66,2.48,2.48,0,0,0,.21,2,2.51,2.51,0,0,0,1.64,1.2,3.51,3.51,0,0,1,2.67,2.67A2.51,2.51,0,0,0,12.48,33a2.49,2.49,0,0,0,2,.22A3.26,3.26,0,0,1,15.55,33.08Z"/></svg>